<?xml version="1.0" standalone="no"?>
<!DOCTYPE svg PUBLIC "-//W3C//DTD SVG 20010904//EN"
 "http://www.w3.org/TR/2001/REC-SVG-20010904/DTD/svg10.dtd">
<svg version="1.0" xmlns="http://www.w3.org/2000/svg"
 width="399.000000pt" height="399.000000pt" viewBox="0 0 399.000000 399.000000"
 preserveAspectRatio="xMidYMid meet">

<g transform="translate(0.000000,399.000000) scale(0.100000,-0.100000)"
fill="#000000" stroke="none">
<path d="M1818 3980 c-882 -86 -1599 -727 -1773 -1585 -51 -250 -55 -474 -14
-724 126 -766 677 -1380 1430 -1595 331 -95 737 -95 1068 0 678 194 1191 707
1385 1385 95 331 95 737 0 1068 -194 677 -707 1191 -1384 1385 -201 57 -509
86 -712 66z m262 -549 c50 -26 80 -74 80 -128 0 -55 -20 -94 -66 -129 l-36
-28 7 -65 c9 -87 10 -88 59 -94 62 -9 136 -36 171 -62 23 -17 59 -27 141 -39
149 -22 242 -49 349 -101 153 -74 252 -183 320 -352 29 -72 35 -80 77 -100 93
-44 139 -130 153 -288 8 -92 -9 -231 -36 -295 -22 -52 -71 -103 -118 -123 -36
-15 -61 -37 -61 -55 0 -32 -80 -181 -128 -238 -103 -124 -206 -174 -912 -438
-267 -100 -308 -113 -325 -101 -18 11 -21 26 -25 136 l-5 124 -120 17 c-345
50 -534 158 -648 369 -19 35 -40 82 -47 104 -16 51 -26 63 -65 79 -51 22 -101
72 -124 125 -46 108 -46 356 0 460 24 55 70 105 113 122 40 16 66 38 66 58 0
8 21 58 46 110 106 218 304 338 638 387 84 12 118 22 141 40 39 29 94 49 163
59 28 4 54 10 56 14 3 4 8 41 11 82 l7 74 -31 17 c-69 38 -93 142 -48 208 27
41 80 70 127 70 19 0 51 -8 70 -19z"/>
<path d="M1779 2620 c-277 -20 -464 -83 -540 -183 -72 -97 -102 -230 -102
-457 0 -416 98 -551 447 -617 118 -23 706 -26 826 -5 242 43 350 106 411 237
101 216 85 661 -30 828 -92 134 -287 190 -701 201 -102 2 -242 1 -311 -4z
m-83 -491 c65 -60 55 -271 -14 -308 -30 -16 -94 -13 -121 5 -35 25 -51 75 -51
162 0 66 4 85 23 113 12 18 34 39 47 47 32 16 88 7 116 -19z m748 16 c47 -23
67 -72 67 -166 0 -115 -35 -170 -108 -171 -76 -1 -111 41 -120 142 -10 104 25
189 82 203 35 8 46 7 79 -8z"/>
</g>
</svg>
